<svg id="icon_sns_kakao_ch_20px" xmlns="http://www.w3.org/2000/svg" xmlns:xlink="http://www.w3.org/1999/xlink" width="18.999" height="20" viewBox="0 0 18.999 20">
  <defs>
    <clipPath id="clip-path">
      <rect id="사각형_27" data-name="사각형 27" width="18.999" height="20" fill="#a5a5a5"/>
    </clipPath>
  </defs>
  <g id="icon_sns_20px_kakao" clip-path="url(#clip-path)">
    <path id="패스_38" data-name="패스 38" d="M5.467.829A10.259,10.259,0,0,1,11.609.217,9.672,9.672,0,0,1,16.43,2.762a8.427,8.427,0,0,1,2.489,4.807,8.6,8.6,0,0,1,.07,1.72A8.332,8.332,0,0,1,17,14.127a9.482,9.482,0,0,1-3.882,2.713,10.129,10.129,0,0,1-5.557.459c-1.185.862-2.358,1.739-3.536,2.61a.316.316,0,0,1-.287.078.282.282,0,0,1-.169-.309q0-2.053,0-4.107a10.076,10.076,0,0,1-2.3-2.268A7.206,7.206,0,0,1,.044,9.646a8.28,8.28,0,0,1,1-4.871A9.227,9.227,0,0,1,5.467.829M4.452,5.685a3.406,3.406,0,0,0-1.562,2,3.677,3.677,0,0,0,.548,3.209,3.661,3.661,0,0,0,4.808.841A3.439,3.439,0,0,0,9.674,9.548c-.459-.005-.918,0-1.376,0a1.969,1.969,0,0,1-.732,1.031,2.249,2.249,0,0,1-2.871-.3,2.333,2.333,0,0,1-.019-3.13A2.284,2.284,0,0,1,7.7,6.983a1.911,1.911,0,0,1,.606.988c.458,0,.916,0,1.374,0a3.736,3.736,0,0,0-.756-1.617A3.287,3.287,0,0,0,6.4,5.2a3.62,3.62,0,0,0-1.95.486m6.38-.465q0,3.467,0,6.933c.417-.005.834,0,1.25,0,.009-.876,0-1.75,0-2.625a1.353,1.353,0,0,1,.289-.91A1.154,1.154,0,0,1,13.631,8.4a.934.934,0,0,1,.505.892c0,.953,0,1.906,0,2.859.419,0,.839,0,1.258,0,0-.994,0-1.988,0-2.981a2.688,2.688,0,0,0-.1-.762,1.755,1.755,0,0,0-1.311-1.227,2.384,2.384,0,0,0-1.231.1,1.629,1.629,0,0,0-.667.53c0-.863,0-1.726,0-2.59-.418,0-.835,0-1.253,0" fill="#a5a5a5"/>
  </g>
</svg>
