<svg id="icon_sns_instagram_20px_gray" xmlns="http://www.w3.org/2000/svg" xmlns:xlink="http://www.w3.org/1999/xlink" width="20.002" height="20" viewBox="0 0 20.002 20">
  <defs>
    <clipPath id="clip-path">
      <rect id="사각형_26" data-name="사각형 26" width="20.002" height="20" fill="#a5a5a5"/>
    </clipPath>
  </defs>
  <g id="icon_sns_20px_instagram" clip-path="url(#clip-path)">
    <path id="패스_35" data-name="패스 35" d="M14.23,0H5.773A5.772,5.772,0,0,0,0,5.773v8.455A5.771,5.771,0,0,0,5.773,20H14.23A5.77,5.77,0,0,0,20,14.228V5.773A5.772,5.772,0,0,0,14.23,0m3.93,14.377a3.834,3.834,0,0,1-3.833,3.834H5.673A3.836,3.836,0,0,1,1.84,14.377V5.724A3.835,3.835,0,0,1,5.673,1.891h8.654A3.833,3.833,0,0,1,18.16,5.724Z" fill="#a5a5a5"/>
    <path id="패스_36" data-name="패스 36" d="M10,4.861a5.19,5.19,0,1,0,5.192,5.19A5.189,5.189,0,0,0,10,4.861m0,8.554a3.365,3.365,0,1,1,3.365-3.364A3.364,3.364,0,0,1,10,13.415" fill="#a5a5a5"/>
    <path id="패스_37" data-name="패스 37" d="M15.364,3.454a1.209,1.209,0,1,0,1.209,1.209,1.209,1.209,0,0,0-1.209-1.209" fill="#a5a5a5"/>
  </g>
</svg>
