<svg xmlns="http://www.w3.org/2000/svg" xmlns:xlink="http://www.w3.org/1999/xlink" width="138" height="30.144" viewBox="0 0 138 30.144">
  <defs>
    <clipPath id="clip-path">
      <rect id="사각형_2" data-name="사각형 2" width="138" height="30.144" transform="translate(0 0)" fill="#00b4e6"/>
    </clipPath>
  </defs>
  <g id="그룹_2" data-name="그룹 2" transform="translate(0 1.999)">
    <g id="그룹_1" data-name="그룹 1" transform="translate(0 -1.999)" clip-path="url(#clip-path)">
      <path id="패스_1" data-name="패스 1" d="M103.285,27.289a5.741,5.741,0,0,1-5.978,5.694H88.765V13.053H96.68a5.6,5.6,0,0,1,5.837,5.524,4.9,4.9,0,0,1-2.022,4.072,5.073,5.073,0,0,1,2.79,4.641M92.039,16.128v5.238H96.68a2.62,2.62,0,0,0,0-5.238Zm7.972,10.99a2.705,2.705,0,0,0-2.7-2.79H92.039v5.58h5.267a2.705,2.705,0,0,0,2.7-2.79" transform="translate(-52.079 -7.658)" fill="#00b4e6"/>
      <path id="패스_2" data-name="패스 2" d="M138.755,28.969H130.27l-1.4,4.015h-3.559l7.232-19.931h3.929l7.2,19.931H140.15Zm-1.082-3.075-3.161-9-3.16,9Z" transform="translate(-73.523 -7.658)" fill="#00b4e6"/>
      <path id="패스_3" data-name="패스 3" d="M181.046,25.723h-3.872v7.26H173.9V13.053h7.972a6.38,6.38,0,0,1,6.407,6.406,6.287,6.287,0,0,1-3.958,5.78l4.527,7.744H185.26Zm-3.872-2.933h4.7A3.225,3.225,0,0,0,185,19.459a3.207,3.207,0,0,0-3.132-3.331h-4.7Z" transform="translate(-102.027 -7.658)" fill="#00b4e6"/>
      <path id="패스_4" data-name="패스 4" d="M222.246,25.723h-3.872v7.26H215.1V13.053h7.972a6.38,6.38,0,0,1,6.407,6.406,6.287,6.287,0,0,1-3.958,5.78l4.527,7.744h-3.587Zm-3.872-2.933h4.7a3.225,3.225,0,0,0,3.132-3.331,3.207,3.207,0,0,0-3.132-3.331h-4.7Z" transform="translate(-126.199 -7.658)" fill="#00b4e6"/>
      <path id="패스_5" data-name="패스 5" d="M316.078,29.852v3.132H303.525V13.053H306.8v16.8Z" transform="translate(-178.078 -7.658)" fill="#00b4e6"/>
      <path id="패스_6" data-name="패스 6" d="M257.8,16.881c5.179-2.265,10.359,2.011,15.538-.254,0-1.032-.017-2.071-.017-3.1-5.179,2.265-10.342-2-15.521.262Z" transform="translate(-151.252 -7.686)" fill="#00b4e6"/>
      <path id="패스_7" data-name="패스 7" d="M257.8,36.293c5.179-2.265,10.359,2.011,15.538-.254,0-1.032-.017-2.071-.017-3.1-5.179,2.265-10.342-2-15.521.262Z" transform="translate(-151.252 -19.075)" fill="#00b4e6"/>
      <path id="패스_8" data-name="패스 8" d="M257.8,55.7c5.179-2.265,10.359,2.011,15.538-.254,0-1.032-.017-2.071-.017-3.1-5.179,2.265-10.342-2-15.521.262Z" transform="translate(-151.252 -30.464)" fill="#00b4e6"/>
      <path id="패스_9" data-name="패스 9" d="M24.4,23.359c3.424-1.5,6.848,1.33,10.272-.168,0-.682-.012-1.368-.012-2.05-3.424,1.5-6.836-1.325-10.261.173Z" transform="translate(-14.313 -12.238)" fill="#00b4e6"/>
      <path id="패스_10" data-name="패스 10" d="M24.4,36.193c3.424-1.5,6.848,1.33,10.272-.168,0-.682-.012-1.369-.012-2.05-3.424,1.5-6.836-1.325-10.261.173Z" transform="translate(-14.313 -19.768)" fill="#00b4e6"/>
      <path id="패스_11" data-name="패스 11" d="M24.4,49.026c3.424-1.5,6.848,1.33,10.272-.168,0-.682-.012-1.368-.012-2.05-3.424,1.5-6.836-1.325-10.261.173Z" transform="translate(-14.313 -27.297)" fill="#00b4e6"/>
      <path id="패스_12" data-name="패스 12" d="M15.072,30.144A15.072,15.072,0,1,1,30.144,15.072,15.089,15.089,0,0,1,15.072,30.144m0-27.982a12.91,12.91,0,1,0,12.91,12.91,12.924,12.924,0,0,0-12.91-12.91" transform="translate(0 0)" fill="#00b4e6"/>
    </g>
  </g>
</svg>
